<svg version="1.1" id="Layer_1" xmlns="http://www.w3.org/2000/svg" xmlns:xlink="http://www.w3.org/1999/xlink" x="0px" y="0px"
	 width="100%" viewBox="0 0 320 320" enable-background="new 0 0 320 320" xml:space="preserve">
<path fill="#000000" opacity="1.000000" stroke="none" 
	d="
M32.574074,168.244659 
	C32.628101,165.650482 32.575386,163.481079 32.672447,161.318405 
	C32.936874,155.426697 33.048618,149.817749 27.240875,145.808792 
	C25.324099,144.485687 23.754349,141.985733 23.371487,139.056824 
	C23.033978,136.474869 20.402662,135.588043 18.267427,134.747467 
	C13.812657,132.993744 10.367848,129.873856 6.890641,126.778336 
	C5.633758,125.659401 4.393251,124.371918 4.950377,122.481400 
	C5.586008,120.324471 7.546210,120.796707 9.135476,120.678307 
	C14.761701,120.259155 20.380569,120.810165 26.061600,119.991692 
	C31.253855,119.243645 31.854626,116.383224 31.512482,112.395500 
	C30.260223,97.800323 29.675472,83.317680 33.072990,68.798546 
	C34.407970,63.093601 33.593719,56.870274 33.638424,50.882122 
	C33.727730,38.919098 40.911667,28.189167 52.024834,24.386372 
	C58.210514,22.269703 64.739487,23.422140 70.662003,25.302683 
	C74.695763,26.583498 78.143738,26.259254 81.766708,25.215282 
	C86.145523,23.953516 90.545403,23.563921 95.073380,23.585340 
	C100.546555,23.611227 105.993279,23.675270 111.490135,22.840290 
	C118.620949,21.757109 125.675743,23.195473 132.644196,25.067911 
	C143.405045,27.959372 154.141205,30.776503 163.749573,36.764664 
	C172.468430,42.198463 178.821365,49.750027 183.600601,58.652794 
	C185.293427,61.806179 186.921005,63.359356 190.872040,62.759777 
	C203.758118,60.804298 216.709427,61.203609 229.630127,62.708511 
	C230.761429,62.840271 232.020538,62.960499 232.955154,63.525036 
	C241.194046,68.501595 250.353043,71.854805 258.061096,77.760941 
	C262.714172,81.326233 267.879639,84.010857 273.272583,86.209694 
	C282.431763,89.944092 287.102661,97.826622 291.687866,105.791229 
	C292.821198,107.759827 292.379761,109.995735 291.974121,112.146431 
	C290.151947,121.807243 290.896637,123.333214 299.509033,127.968185 
	C302.289581,129.464584 305.024231,131.045975 307.788544,132.572815 
	C318.657593,138.576126 320.208710,142.088486 317.395782,155.019958 
	C315.278564,164.753250 310.870758,173.825317 307.681915,183.257217 
	C301.826691,200.575500 295.186768,217.587936 288.519714,234.602112 
	C281.861115,251.594818 276.077026,268.943329 268.989868,285.748016 
	C266.439728,291.794769 261.826691,297.082550 258.648468,303.030396 
	C257.962341,304.314484 256.575043,305.282013 254.932419,305.263184 
	C248.198730,305.186035 241.489105,306.162720 235.180954,301.966003 
	C230.887115,299.109375 225.670151,297.618073 220.668869,295.944977 
	C215.988708,294.379333 211.411804,292.672363 207.047226,290.024170 
	C201.734802,286.800842 195.591461,284.911621 189.728958,282.648865 
	C187.618317,281.834167 185.530548,282.752350 183.500885,283.691742 
	C173.158249,288.478668 162.176254,286.578339 151.548248,285.777771 
	C147.033203,285.437714 142.345062,281.996582 139.409973,277.759735 
	C137.874207,275.542877 136.199173,275.236542 133.867340,275.745056 
	C122.022064,278.328156 110.000511,277.151367 98.043404,277.363892 
	C95.103241,277.416138 93.456253,275.825012 92.487679,273.237152 
	C90.987373,269.228638 88.779526,265.505005 87.800659,260.634979 
	C77.417580,262.745148 66.850807,261.465820 56.799870,264.929077 
	C53.937656,265.915314 50.834335,265.566071 47.872543,265.166351 
	C44.744141,264.744171 42.640480,263.376404 41.956947,259.692657 
	C40.172901,250.077957 37.731361,240.585754 35.920135,230.975327 
	C35.301178,227.691132 34.544647,223.925385 38.131294,221.351273 
	C38.577549,221.031021 39.047112,219.992676 38.855717,219.645706 
	C35.302296,213.203827 37.242390,204.452774 29.473389,199.604813 
	C24.243891,196.341553 22.237129,190.282867 24.904163,184.914719 
	C27.565105,179.558838 30.001057,174.091171 32.574074,168.244659 
M180.072708,82.175903 
	C185.035187,80.423462 184.880722,76.127563 184.065659,72.418243 
	C181.305008,59.854790 173.907806,50.127266 163.875458,42.443516 
	C153.146225,34.226025 139.864258,32.275551 127.447044,28.179005 
	C119.709579,25.626347 112.773315,25.916201 105.545654,30.217598 
	C98.820580,34.219894 91.634834,37.122627 83.373962,37.786602 
	C76.698341,38.323158 69.753059,38.569160 63.257164,40.776276 
	C50.035549,45.268585 43.670425,56.477585 38.560883,68.007988 
	C32.078278,82.636894 33.915714,98.311417 35.511208,113.735641 
	C35.763943,116.178940 37.360378,117.213081 39.771328,117.891182 
	C44.725098,119.284500 49.997051,119.278160 54.762016,121.449539 
	C56.020584,122.023064 58.216820,121.640701 57.798103,123.840515 
	C57.423164,125.810341 55.432751,125.382584 54.036758,125.260292 
	C52.571838,125.131958 51.156017,124.520485 49.698029,124.220978 
	C45.572521,123.373512 41.514027,121.741020 36.853382,122.780685 
	C37.778709,125.674049 40.165165,125.894020 42.095768,126.395638 
	C44.484962,127.016411 47.065838,126.569557 49.471333,127.484375 
	C50.769657,127.978134 52.221733,128.304581 51.916573,130.041611 
	C51.597492,131.857895 50.025860,131.651611 48.712170,131.453552 
	C44.963459,130.888336 41.265800,129.622910 37.301289,130.778305 
	C36.739006,134.268433 37.224014,135.626877 41.678787,135.178467 
	C58.213459,133.514084 73.499748,127.397232 89.170013,122.666687 
	C95.438438,120.774384 95.858200,120.598427 97.765205,126.827347 
	C98.739868,130.010880 100.270660,131.246582 103.558907,130.289734 
	C109.348953,128.604919 114.899025,126.476013 119.798393,122.835396 
	C122.039421,121.170135 123.004723,119.167419 122.538605,116.385155 
	C120.863663,106.387360 122.933617,95.942329 118.866508,86.205772 
	C118.180618,84.563774 118.062607,82.639923 117.917000,80.827446 
	C117.703171,78.165733 118.408302,75.799957 121.097092,74.625824 
	C123.801346,73.444931 125.932327,74.675194 127.820045,76.533699 
	C130.552307,79.223648 130.398163,82.493103 129.635498,85.865044 
	C128.282150,91.848549 126.836617,97.793495 125.877655,103.881050 
	C124.605156,111.958992 126.605858,119.221848 130.200775,126.168449 
	C131.994629,129.634796 136.253372,130.370941 139.758270,128.479614 
	C141.652695,127.457336 143.646194,126.612213 145.506500,125.534431 
	C152.684784,121.375671 159.167664,115.982338 164.241455,109.726639 
	C170.750290,101.701584 176.082474,92.591965 180.072708,82.175903 
M131.573425,207.151321 
	C130.601593,210.075073 129.629761,212.998810 128.642929,215.967667 
	C134.590485,217.141129 134.590485,217.141129 136.181549,219.905685 
	C128.549530,219.660934 127.643997,223.833511 129.285034,229.838882 
	C130.139740,232.966660 127.954025,233.636246 125.330093,234.607285 
	C121.943222,235.860641 121.463631,233.616867 120.728462,231.780304 
	C119.333046,228.294418 118.385902,224.846298 113.216339,226.564041 
	C106.621933,228.755203 99.859467,230.435394 93.229584,232.526520 
	C87.541397,234.320648 86.314499,236.337509 87.634171,242.237274 
	C88.817749,247.528625 90.484039,252.711990 92.123512,258.612976 
	C98.508179,255.242386 104.775032,257.330566 110.976562,257.961914 
	C118.912834,258.769897 127.292587,259.648224 133.551346,264.779053 
	C138.958099,269.211426 144.241028,272.621979 151.221558,273.675690 
	C157.655945,274.647034 164.036636,277.725861 169.850525,271.829346 
	C170.811890,270.854309 172.976990,270.967224 174.609085,270.770020 
	C180.786041,270.023682 184.265305,266.292084 184.876907,259.465179 
	C179.795059,258.231171 175.311447,264.233612 170.551132,261.609375 
	C169.293564,252.650040 177.209229,250.757278 181.188477,246.227997 
	C177.910965,242.659927 173.353912,242.192352 169.831894,239.368912 
	C174.324997,237.492325 178.829880,236.204010 183.215393,235.089661 
	C192.233780,232.798096 198.605255,222.934921 195.978455,213.938293 
	C194.862595,210.116577 193.653259,206.483932 191.211380,203.103882 
	C187.145737,197.476181 186.968506,197.053925 180.759155,200.028259 
	C176.995865,201.830933 173.175766,203.437088 169.170853,204.607391 
	C166.427673,205.408997 164.048584,204.914612 162.937729,202.121521 
	C161.813583,199.294983 163.346466,197.237488 165.811478,196.014526 
	C167.584625,195.134811 169.506561,194.343842 171.443802,194.047775 
	C176.219330,193.317963 177.132370,188.894058 179.487930,185.913315 
	C180.287750,184.901215 179.656509,183.335068 178.353592,182.466125 
	C177.052872,181.598679 175.718109,180.848984 174.280380,182.106308 
	C173.154388,183.091003 171.953094,184.062347 171.085541,185.257584 
	C166.686768,191.317780 160.670410,195.440567 154.539047,199.477875 
	C150.573242,202.089249 146.221481,203.206635 141.730240,202.035995 
	C136.964706,200.793839 134.067337,202.551910 131.573425,207.151321 
M192.301727,248.487411 
	C192.612610,251.915527 195.114258,253.641006 197.926926,253.933044 
	C200.983368,254.250412 201.580109,251.059570 202.576889,248.853546 
	C209.630356,233.243179 216.498810,217.547180 223.721039,202.015564 
	C232.169785,183.846252 239.254700,165.138321 246.289917,146.404495 
	C246.891205,144.803360 247.078522,143.087387 244.918411,142.245895 
	C243.382339,141.647476 241.914459,140.840057 240.342728,140.372879 
	C233.311096,138.282776 232.439606,136.671646 234.725739,129.465424 
	C235.980591,125.509956 237.503311,121.627075 238.538437,117.616791 
	C240.911972,108.421288 240.883438,108.364639 249.310638,111.975296 
	C250.076340,112.303360 250.819839,112.704353 251.611832,112.946602 
	C257.357178,114.703957 262.305878,119.631805 269.244232,116.758484 
	C271.265442,115.921455 273.644989,117.678360 275.705536,118.820412 
	C277.586029,119.862694 279.570282,120.766228 281.595764,121.486290 
	C284.222137,122.419937 286.240051,121.369743 287.271637,118.876808 
	C290.605865,110.819313 283.190643,99.682396 274.524689,99.361107 
	C259.523804,98.804955 244.639832,100.691025 229.735687,101.702805 
	C224.155426,102.081627 218.409836,101.498749 212.904709,103.041222 
	C211.668427,103.387619 210.062393,103.343071 209.617783,104.906540 
	C209.123199,106.645760 210.414230,107.672234 211.570374,108.624054 
	C212.937805,109.749817 215.185547,110.617882 213.606247,112.881012 
	C210.709442,117.032150 210.880920,122.044701 209.480667,126.605087 
	C208.751129,128.981064 208.337341,131.061981 205.410461,131.485626 
	C203.307770,131.789963 202.242249,133.157684 202.314453,135.334366 
	C202.634613,144.985962 201.985779,154.641983 202.733795,164.302979 
	C203.188446,170.175079 203.763168,175.956253 200.727692,181.789001 
	C197.574417,187.848068 197.209579,194.000824 201.153519,200.943375 
	C209.492996,215.623444 208.038284,229.665588 195.279266,243.247131 
	C194.041016,244.565186 192.553146,245.759201 192.301727,248.487411 
M85.799393,206.451675 
	C88.393524,208.294662 105.549789,207.441956 107.617706,205.228851 
	C110.910957,201.704407 113.888680,198.093185 115.144180,193.111435 
	C116.174637,189.022690 118.960701,185.338165 123.176956,184.243332 
	C128.411270,182.884109 133.893387,182.297638 139.307449,181.863068 
	C144.790649,181.422943 150.176605,180.764084 155.505630,179.330063 
	C160.300873,178.039688 162.969727,174.878738 164.968796,170.577148 
	C167.289734,165.583008 168.884079,160.346100 170.811295,155.220032 
	C172.142502,151.679260 174.769363,150.064545 178.273422,152.275772 
	C181.171524,154.104614 181.393860,156.947189 180.434265,160.228226 
	C178.836212,165.692230 181.378723,169.976791 186.709412,171.530151 
	C191.499893,172.926102 194.238754,170.646271 193.595078,165.719543 
	C192.305710,155.850464 190.998703,145.983444 189.637665,136.124039 
	C188.754623,129.727341 184.050064,126.513687 178.744003,124.504929 
	C174.566086,122.923271 171.228043,125.500778 168.137909,128.409378 
	C164.272949,132.047318 160.351685,135.805328 155.874420,138.572678 
	C148.282852,143.264954 139.836838,143.689484 131.488739,140.722168 
	C127.349251,139.250793 125.063812,139.735565 124.362885,144.014511 
	C123.997940,146.242386 123.290779,147.176712 121.141655,147.577652 
	C118.705963,148.032059 116.334808,148.850052 113.950905,149.561279 
	C106.479828,151.790253 99.466789,154.965118 92.906586,159.341049 
	C94.444916,162.182205 97.044998,163.272888 98.810333,165.206039 
	C99.948219,166.452118 102.337547,167.654587 100.409752,169.607239 
	C98.795380,171.242416 97.128998,169.719025 95.641258,168.533569 
	C93.051712,166.470169 90.598503,164.055511 85.878922,163.560410 
	C89.248764,166.778595 91.826874,169.225082 94.385612,171.691650 
	C95.465363,172.732498 96.874268,173.902878 95.620079,175.471191 
	C94.384895,177.015732 92.888245,175.863831 91.584076,175.189728 
	C89.285332,174.001556 88.295990,170.891541 84.889931,170.745621 
	C79.868057,182.518692 83.765617,194.125397 85.799393,206.451675 
M284.513885,153.716385 
	C290.046692,156.415375 296.520874,157.053253 301.506744,161.717422 
	C302.389618,158.618546 302.886627,155.636169 303.848480,152.896667 
	C305.561493,148.017776 303.191620,145.524323 299.547852,143.773209 
	C286.165741,137.342102 272.684570,131.117218 259.365387,124.873199 
	C253.493988,137.049637 250.188995,149.428177 245.688583,161.362671 
	C242.690475,169.313217 238.726471,176.811447 235.815002,184.758575 
	C233.196854,191.905014 233.339462,191.956085 240.003067,194.614746 
	C240.928650,194.984039 241.842850,195.382034 242.770767,195.745178 
	C256.156067,200.983490 269.960449,205.184769 283.363617,212.186783 
	C286.098969,204.477844 290.027924,197.262817 291.561462,189.202362 
	C277.218781,183.855545 264.031372,176.672989 249.550842,172.794754 
	C247.606262,172.273941 245.867004,170.982376 247.136993,168.837646 
	C251.249023,161.893311 253.129120,154.091599 256.052307,146.695053 
	C257.166504,143.875885 258.783905,143.601501 261.526459,144.816666 
	C268.798767,148.038788 275.993378,151.508514 284.513885,153.716385 
M264.370911,95.642746 
	C267.685577,95.429665 271.156372,96.218407 275.065247,94.233917 
	C264.768433,87.621986 255.264465,81.260895 245.491394,75.344292 
	C239.980911,72.008247 234.315521,68.096451 228.211349,66.750610 
	C216.506424,64.169899 204.445755,64.937630 192.561966,66.748451 
	C191.141006,66.964981 189.018250,67.447800 189.045746,69.052032 
	C189.182510,77.033844 183.619385,85.685112 191.541977,92.813560 
	C195.467850,96.345917 199.307877,101.207787 204.956879,100.346581 
	C211.216583,99.392258 217.451920,98.995361 223.719803,98.417618 
	C236.935501,97.199448 250.141464,95.992813 264.370911,95.642746 
M267.402374,239.323730 
	C256.174835,237.654434 245.695129,233.354156 235.043716,229.776154 
	C229.603485,227.948685 222.573135,227.033920 222.446945,218.145676 
	C217.096268,228.436203 212.575851,238.349640 208.118622,248.291382 
	C207.448776,249.785477 208.132980,251.180023 209.687057,251.321365 
	C213.438126,251.662537 216.500198,253.867355 220.049301,254.751022 
	C233.462921,258.090759 245.822281,263.787048 257.662598,272.337830 
	C266.799011,255.214066 275.162109,238.070847 280.053131,219.393341 
	C277.396759,221.971451 276.391418,225.458206 274.621704,228.502808 
	C272.525116,232.109833 272.150360,236.757492 267.402374,239.323730 
M68.029556,213.097870 
	C65.373314,205.208313 64.025772,197.176315 63.315990,188.806915 
	C62.432148,178.385101 62.463406,168.297134 65.515465,158.280777 
	C67.002380,153.400986 66.397232,152.674103 61.048927,152.388565 
	C54.417789,152.034531 47.761753,153.039337 41.129562,151.664627 
	C38.245186,151.066742 36.363747,152.666245 36.372192,155.907166 
	C36.386520,161.406281 36.420437,166.906494 36.328918,172.404282 
	C36.283405,175.138351 37.646553,176.210114 40.173355,176.618469 
	C47.551807,177.810913 48.978313,180.614548 45.951324,188.041107 
	C48.224400,190.255142 50.866646,193.370804 47.692894,195.995056 
	C41.667152,200.977524 45.637276,206.190109 46.452248,211.300858 
	C46.779858,213.355316 48.671188,214.338379 50.919849,214.664139 
	C55.954967,215.393539 58.217361,219.114090 55.839241,223.313202 
	C53.307674,227.783249 55.773769,228.916412 59.288979,229.809555 
	C65.086014,231.282455 71.201584,230.500275 76.968857,232.549011 
	C80.024307,233.634415 81.393082,231.105560 82.233597,228.575058 
	C83.004799,226.253204 82.571037,224.639923 80.181046,223.209656 
	C75.859482,220.623383 71.146011,218.391678 68.029556,213.097870 
M262.478210,272.946960 
	C257.326843,282.473236 252.491653,292.185364 244.682327,301.043030 
	C249.587158,301.750641 253.569427,302.908051 255.842636,299.079224 
	C259.020782,293.726196 261.859558,288.218597 265.268280,282.946625 
	C269.172150,276.908783 271.225067,269.556335 273.356140,262.687561 
	C281.431305,236.659882 293.767578,212.267288 301.773132,186.195770 
	C305.152924,175.188812 309.213531,164.252686 313.350220,153.417999 
	C316.144409,146.099564 315.067291,143.633636 308.959015,138.878891 
	C305.256134,135.996521 300.951355,134.228561 296.769684,132.221237 
	C288.618866,128.308609 279.237946,127.450867 271.675751,122.042320 
	C270.309296,121.065025 268.611542,120.695908 267.230438,122.704605 
	C268.406128,124.192055 269.862335,125.114349 271.653564,125.741348 
	C282.161926,129.419724 291.967621,134.635620 301.822876,139.726761 
	C308.135498,142.987793 309.165771,145.625565 308.054779,152.662994 
	C306.493408,162.553040 303.206940,171.920029 299.800964,181.250992 
	C294.795227,194.964706 289.473877,208.564667 284.580414,222.317474 
	C280.697845,233.229141 277.278107,244.311218 272.065155,254.697754 
	C269.092346,260.621002 266.928497,266.970306 262.478210,272.946960 
M205.004730,279.461517 
	C211.784378,283.348877 218.876083,286.506714 226.444656,288.515533 
	C227.988022,288.925140 229.826569,289.881317 230.982635,288.002960 
	C234.862396,281.699249 239.324982,275.735931 242.755585,268.533813 
	C242.134277,268.136566 241.567902,267.797028 241.024734,267.423737 
	C232.486069,261.555389 222.207458,260.340302 212.775818,256.861176 
	C211.474350,256.381073 210.288559,256.924927 209.770172,257.989594 
	C206.763107,264.165833 201.194611,268.941681 199.659729,276.096710 
	C201.321854,277.170166 202.842850,278.152496 205.004730,279.461517 
M257.184601,229.595474 
	C260.462097,223.176834 264.287415,216.970428 265.425934,209.544479 
	C257.456085,205.179688 249.039078,203.023148 241.136383,199.631149 
	C239.086670,198.751358 237.765579,199.598633 236.912521,201.695786 
	C235.100967,206.149200 233.076324,210.515381 231.199249,214.942856 
	C229.086380,219.926590 230.012482,222.519409 234.901001,224.784775 
	C240.635574,227.442154 246.720734,229.131409 252.752457,230.962555 
	C254.310928,231.435699 255.663895,231.633820 257.184601,229.595474 
M267.704437,174.594040 
	C269.064545,175.224579 270.393066,175.937668 271.790070,176.471695 
	C278.750458,179.132477 278.789764,179.114960 281.437286,172.299606 
	C282.580475,169.356827 283.431610,166.281357 284.793030,163.447601 
	C286.395477,160.112152 285.129181,158.433258 282.027252,157.525574 
	C275.478424,155.609329 269.019257,153.463211 262.952728,150.288956 
	C260.774567,149.149292 259.488281,149.959213 258.715057,152.057526 
	C257.049774,156.576492 255.402252,161.101990 253.735535,165.620407 
	C252.807632,168.135910 253.543488,169.787338 256.153229,170.624069 
	C259.786957,171.789078 263.396820,173.028564 267.704437,174.594040 
M35.803993,139.389740 
	C33.918018,139.660156 31.799768,138.711258 30.055080,140.495697 
	C31.109697,143.936203 32.407455,145.893890 36.320766,143.099274 
	C38.475273,141.560669 41.292973,141.802399 44.051590,142.060471 
	C61.643806,143.706375 79.019142,144.113174 93.352509,130.921814 
	C93.250153,126.117554 90.359711,126.951180 87.243942,127.871269 
	C79.968513,130.019730 73.226990,133.953903 66.151947,135.964523 
	C56.761097,138.633255 46.541286,138.385025 35.803993,139.389740 
M267.584686,217.957047 
	C265.864594,222.098999 264.170959,226.252243 262.410980,230.377182 
	C261.733765,231.964371 261.595795,233.313995 263.522034,234.016113 
	C265.111603,234.595474 266.636475,234.307877 267.388428,232.735596 
	C270.364563,226.512726 273.221771,220.232986 276.104065,214.015289 
	C270.391144,210.929550 269.888184,211.158493 267.584686,217.957047 
M288.029205,181.651505 
	C291.974823,177.350037 292.215851,171.366913 294.903320,166.488190 
	C295.885590,164.705078 296.100922,163.158478 293.586792,162.166534 
	C291.293549,161.261765 290.151886,162.070099 289.378845,164.070129 
	C287.651886,168.537933 285.924652,173.005722 284.225281,177.484024 
	C283.100128,180.449097 284.088409,181.957275 288.029205,181.651505 
M249.042053,279.517822 
	C249.670593,278.162231 250.240768,276.775543 250.942963,275.459229 
	C251.757553,273.932251 251.132416,272.888123 249.898895,272.096863 
	C248.486023,271.190552 247.140533,271.045959 246.067535,272.727783 
	C242.860001,277.755432 239.565155,282.728333 236.429764,287.800140 
	C235.777649,288.855011 235.146225,290.381683 236.808517,291.278809 
	C238.059952,291.954224 239.191818,291.233185 239.807449,290.222351 
	C242.176895,286.331848 245.921646,283.669037 249.042053,279.517822 
M225.535767,215.488220 
	C227.519516,210.434570 231.341248,205.991028 230.855072,200.085388 
	C227.554077,204.724457 225.024673,209.684158 223.538528,215.104767 
	C223.253769,216.143387 224.145798,216.478577 225.535767,215.488220 
M77.922722,212.543823 
	C80.401413,212.516113 81.563370,211.188477 81.500198,208.786484 
	C81.468597,207.584641 81.132523,206.263229 79.752327,206.126785 
	C77.526749,205.906784 76.789192,207.763580 75.826927,209.331970 
	C74.650322,211.249725 75.503693,212.034943 77.922722,212.543823 
M29.989630,125.117546 
	C27.796192,124.395538 25.658594,124.205284 23.569656,125.682205 
	C27.738228,128.590134 29.561806,128.486176 29.989630,125.117546 
z"/>
<path fill="#000000" opacity="1.000000" stroke="none" 
	d="
M80.786575,97.577599 
	C80.798599,89.950073 82.048409,87.923561 86.587120,87.660156 
	C92.814049,87.298775 98.537430,91.607483 99.151413,97.782265 
	C99.481949,101.106445 100.950089,105.441986 96.048645,107.127632 
	C91.205620,108.793175 84.099922,105.767799 81.934212,101.286224 
	C81.435776,100.254784 81.200706,99.096062 80.786575,97.577599 
z"/>
</svg>